<svg xmlns="http://www.w3.org/2000/svg" viewBox="0 0 300 100">
  <path fill="#ffffff" d="M150 20c-33.1 0-60 13.4-60 30s26.9 30 60 30 60-13.4 60-30-26.9-30-60-30zm0 55c-30.4 0-55-11.2-55-25s24.6-25 55-25 55 11.2 55 25-24.6 25-55 25z"/>
  <path fill="#ffffff" d="M150 30c-27.6 0-50 8.9-50 20s22.4 20 50 20 50-8.9 50-20-22.4-20-50-20zm0 35c-24.9 0-45-6.7-45-15s20.1-15 45-15 45 6.7 45 15-20.1 15-45 15z"/>
  <path fill="#ffffff" d="M114 50c0-2.2 1.8-4 4-4h64c2.2 0 4 1.8 4 4s-1.8 4-4 4h-64c-2.2 0-4-1.8-4-4z"/>
  <path fill="#ffffff" d="M75 50c0-5.5 33.6-10 75-10s75 4.5 75 10-33.6 10-75 10-75-4.5-75-10zm75 5c-35.8 0-65-2.2-65-5s29.2-5 65-5 65 2.2 65 5-29.2 5-65 5z"/>
</svg>